/* XPM */
static char *c4b18ea233034ced9b549821bf7b63d4xaLNQYCoSZxw8unR[] = {
/* columns rows colors chars-per-pixel */
"64 64 118 2 ",
"   c None",
".  c #000000",
"X  c #0A0000",
"o  c #050B03",
"O  c #130303",
"+  c #1D0000",
"@  c #170909",
"#  c #1A0A0A",
"$  c #071206",
"%  c #081306",
"&  c #0B1B08",
"*  c #260101",
"=  c #2C0000",
"-  c #230D0D",
";  c #330000",
":  c #3A0000",
">  c #2D1111",
",  c #3C1616",
"<  c #0E220A",
"1  c #122C0E",
"2  c #14300F",
"3  c #153410",
"4  c #193D12",
"5  c #470000",
"6  c #4D0000",
"7  c #560000",
"8  c #5C0000",
"9  c #411717",
"0  c #4D1D1D",
"q  c #521F1F",
"w  c #640000",
"e  c #6A0000",
"r  c #750000",
"t  c #7A0000",
"y  c #552020",
"u  c #622525",
"i  c #682727",
"p  c #6C2828",
"a  c #742C2C",
"s  c #7A2E2E",
"d  c #204F19",
"f  c #215219",
"g  c #255C1C",
"h  c #27601E",
"j  c #28641E",
"k  c #2A6720",
"l  c #2B6A21",
"z  c #2E7323",
"x  c #327B25",
"c  c #850000",
"v  c #8D0000",
"b  c #940000",
"n  c #9B0000",
"m  c #9E0C0C",
"M  c #A50000",
"N  c #AA0404",
"B  c #AD0909",
"V  c #B20E0E",
"C  c #B51111",
"Z  c #B91515",
"A  c #852E2E",
"S  c #833232",
"D  c #8B3030",
"F  c #9A3737",
"G  c #963939",
"H  c #9D3A3A",
"J  c #AC3131",
"K  c #C62323",
"L  c #C92727",
"P  c #C22A2A",
"I  c #CC2929",
"U  c #D12E2E",
"Y  c #CA3232",
"T  c #C53E3E",
"R  c #D33131",
"E  c #DA3737",
"W  c #B64040",
"Q  c #B94646",
"!  c #C54A4A",
"~  c #D34646",
"^  c #D74949",
"/  c #D55151",
"(  c #DC5353",
")  c #E14F4F",
"_  c #E84848",
"`  c #F04E4E",
"'  c #E45454",
"]  c #EC5959",
"[  c #F65656",
"{  c #F85656",
"}  c #F95959",
"|  c #FF6262",
" . c #358228",
".. c #368429",
"X. c #368629",
"o. c #3B902D",
"O. c #3B912D",
"+. c #3B922D",
"@. c #3C942E",
"#. c #3C952E",
"$. c #3D972F",
"%. c #3E982F",
"&. c #409F31",
"*. c #41A032",
"=. c #42A332",
"-. c #44A734",
";. c #44A934",
":. c #46AC35",
">. c #46AE36",
",. c #48B337",
"<. c #49B538",
"1. c #4AB739",
"2. c #4AB839",
"3. c #4CBB3A",
"4. c #4EC23C",
"5. c #4EC33C",
"6. c #4FC33C",
"7. c #4FC43D",
/* pixels */
"                                                                            . . . . . . . . . . . . . . .                       ",
"                                                                            . . . . . . . . . . . . . . .                       ",
"                                                                        . $ g l k k k l l g g f 4 4 % . .                       ",
"                                                                        . $ -.7.4.4.4.4.4.1.:.&.z z < . .                       ",
"                                                                      & < 2 =.1.1.1.1.1.2.:.*.O.g g < . .                       ",
"                                                        . . .     . . f ,.>.%.@.#.#.O.#.#.X.x j o .                             ",
"                                                        . . .     . . f 4.3.@.O.O.O.O.O.O...x g o .                             ",
"                                                              . . . . 4 @.O..... . . . . .d 1 1                                 ",
"                                                              . . . . 3 x x x x x x x x x 2 . .                                 ",
"                                                              . . . . 1 h h g g g g g g h 2 . .                                 ",
"                                                              . .       . . o . . o . . .                                       ",
"                                                              . .       . . . . . . . . .                                       ",
"                                                              . .                                                               ",
"                                                              . .                                                               ",
"                                                              . .                                                               ",
"                                                              . .                                                               ",
"                                                              . .                                                               ",
"                                      . . . . . . .           . .           . . . . . . .                                       ",
"                                    . . . . . . . .           . .           . . . . . . .                                       ",
"                                    0 u u u u u u y         . . . .         = = = = ; = = +                                     ",
"                                . . G | | | | | | Q o . . . . . . . . . . X e t t t t t t ; . .                                 ",
"                                @ @ H } } [ } { | J O X X X X X X X X X X O e c t t t t t : X X                                 ",
"                            . - ! / P V V C C C C m w w w w w w w w w w w e n n n n M n n t w 7 X .                             ",
"                          . . - ] | I n M M M M M n t r t t t t t r t t t t n N M M M M M v r w . .                             ",
"                          y a A Y R Z M M M M M M n v v v v v v v v v v v v M M M M M M M b v t : : *                           ",
"                      . . S | [ B M M M M M M M M M M N M N M N N M M M N M M M M M M M M M N n t r * . .                       ",
"                      # # D [ _ B M M M M M M M M M M M M M M M M M M M M M M M M M M M M M M n c t ; X X                       ",
"                  . # ! ' Y B B M M M M M M M M M M M M M M M M M M M M M M M M M M M M M M M M M n t e 6 X .                   ",
"                  . # ( | R M M M M M M M M M M M M M M M M M M M M M M M M M M M M M M M M M M M M c t 7 X .                   ",
"                  . # ( | R M M M M M M M M M M M M M M M M M M M M M M M M M M M M M M M M M M M M c t 7 . .                   ",
"                  . # ( | U M M M M M M M M M M M M M M M M M M M M M M M M M M M M M M M M M M M M c t 7 . .                   ",
"                - > 9 ~ [ K M M M M M M M M M M M M M M M M M M M M M M M M M M M M M M M M M M M M v c w + O                   ",
"            . . i ] ' C B M M M M M M M M M M M M M M M M M M M M M M M M M M M M M M M M M M M M M M M b r e + . .             ",
"            . . p | [ V M M M M M M M M M M M M M M M M M M M M M M M M M M M M M M M M M M M M M M M M n t r + . .             ",
"            . . p | } V M M M M M M M M M M M M M M M M M M M M M M M M M M M M M M M M M M M M M M M M b t r + . .             ",
"            . . p | [ V n M M M M M M M M M M M M M M M M M M M M M M M M M M M M M M M M M M M M M M M n t r + . .             ",
"            . . p | } V M M M M M M M M M M M M N M M M M M M M M M M M M M M M M M M M M M M M M M M M n t r + . .             ",
"            . . p } [ C M M M M M M M M M M M M M M M M M M M M M M M M M M M M M M M N M M M M M M M N b t r + . .             ",
"            . . i | [ V M M M M M M M M M M M M M M M M M M M M M M M M M M M M M M M M M M M M M M M M n t r + . .             ",
"            . . p | } V M M M M M M M M M M M M M M M M M M M M M M M M M M M M M M M M M M M M M M M M b t r + . .             ",
"            . . p | [ V M M M M M M M M M M M M M M M M M M M M M M M M M M M M M M M M M M M M M M M M n t r + . .             ",
"            . . p | [ V M M M M M M M M M M M M M M M M M M M M M M M M M M M M M M M M M M M M M M M N b t r + . .             ",
"            . . p | ] V M M M M M M M M M M M M M M M M M M M M M M M M M M M M M M M M M M M M M M M M n t r + . .             ",
"            . . p | } V M M M M M M M M M M M M M M M M M M M M M M M M M M M M M M M M M M M M M M M M b t r + . .             ",
"            . . p | } V M M M M M M N M M M M M M M M M M M M M M M M M M M M M M M M M M M M M M M M M n t r + . .             ",
"            . . p | } V M M M M M M M M M M M M M M M M M M M M M M M M M M M M M M M M M M M M M M M N n t r + . .             ",
"              . y H J P K Z M M M M M M M M M M M M M M M M M M M N M M M M M M M M M M M M M M M M n b t 6 5 + .               ",
"                  . @ ( | Y M M M M M M M M M M M M M M M M M M M M M M M M M M M M M M M M M M M M c t 7 . .                   ",
"                  . # ( | R M M M M M M M M M M M M M M M M M M M M M M M M M M M M M M M M M M M M c t 7 . .                   ",
"                  . # ( | U M M M M M M M M M M M M M M M M M M M M M M M M M M M M M M M M M M M M c t 7 X .                   ",
"                  . # ( | R M M M M M M M M M M M M M M M M M M M M M M M M M M M M M M M M M M M M v t 8 . .                   ",
"                  . @ s S J R K N M M M M M M M M M M M M M M M M M M M M M M M M M M M M M M M b v 8 : ; . .                   ",
"                      . . s | } B M M M M M M M M M M M M M M M M M M M M M M M M M M M M M M n t t * . .                       ",
"                      . . s ( ^ C V N M M M M M M M M M M M M M M M M M M M M M M M M M M M n b e e * . .                       ",
"                          # # , ( { K M M M M M M M M M M M M M M M M M M M M M M M M M M v t w O X                             ",
"                          . . - ] | I M M M M M M M M M M M M M M M M M M M M M M M M M N v t w X .                             ",
"                              - p a J E I N M M M n v v v v v v v v v v v v M M M M M b v 7 ; =                                 ",
"                                . . G | ` B M M M n t r r t t t t t t t r t M M M M n t t = . .                                 ",
"                                . . S / T m n n n b t r e w 8 w w 8 w e t t b n n M b w w = . .                                 ",
"                                    @ X * r t t t t t r * . X X X X X ; t t t t t t e O X                                       ",
"                                    . . O r t r t t r r * . . . . . . ; t t r t r t w X .                                       ",
"                                          = = = = = = = O   . . .     + = = = = = = =                                           ",
"                                          . . . . . . .       . .       . . . . . . .                                           ",
"                                          . . . . . . .       . .       . . . . . . .                                           "
};
