/* XPM */
static char *c9b8e33ee0fa4f93ab756b4e643cbd33mfG8DeuKlB8RGf1Z[] = {
/* columns rows colors chars-per-pixel */
"64 64 186 2 ",
"   c #593C2A",
".  c #5B3D2B",
"X  c #5B3E2B",
"o  c #5D3F2C",
"O  c #5D3E2C",
"+  c #5A3C2A",
"@  c #5C3E2B",
"#  c #694632",
"$  c #6A4733",
"%  c #6A4732",
"&  c #6C4934",
"*  c #785139",
"=  c #79523A",
"-  c #754F38",
";  c #684631",
":  c #6B4733",
">  c #6C4833",
",  c #775039",
"<  c #765038",
"1  c #5E3F2D",
"2  c #5C3E2C",
"3  c #6B4833",
"4  c #6E4934",
"5  c #6F4A35",
"6  c #714C36",
"7  c #7D543B",
"8  c #7E553C",
"9  c #7F553C",
"0  c #714B36",
"q  c #7C543B",
"w  c #7B533B",
"e  c #5F402D",
"r  c #6F4B35",
"t  c #7A523A",
"y  c #7C533B",
"u  c #704B35",
"i  c #6D4934",
"p  c #795139",
"a  c #704B36",
"s  c #6F4A34",
"d  c #6E4A34",
"f  c #6D4B37",
"g  c #705645",
"h  c #715747",
"j  c #735847",
"k  c #725645",
"l  c #6D4A36",
"z  c #735746",
"x  c #6E4B37",
"c  c #6E4933",
"v  c #715B4B",
"b  c #86B0BB",
"n  c #8DBCCA",
"m  c #9EC3CF",
"M  c #A1C4CF",
"N  c #A1C5D1",
"B  c #9AB3BB",
"V  c #725745",
"C  c #A1C4D0",
"Z  c #9CB9C2",
"A  c #755C4D",
"S  c #725E4F",
"D  c #8BC1D2",
"F  c #93CFE4",
"G  c #A7D7E9",
"H  c #AAD8EA",
"J  c #AAD9EB",
"K  c #A1C5D2",
"L  c #735948",
"P  c #6F4934",
"I  c #A4CBD9",
"U  c #766051",
"Y  c #8BC0D1",
"T  c #92CEE2",
"R  c #A6D6E7",
"E  c #A9D7E8",
"W  c #A9D8E9",
"Q  c #A3CAD8",
"!  c #765F50",
"~  c #A7D6E7",
"^  c #724C36",
"/  c #A4D5E6",
"(  c #8FCDE1",
")  c #91CDE1",
"_  c #95CFE2",
"`  c #8ECDE1",
"'  c #8ECCE0",
"]  c #92CEE1",
"[  c #9FC3D0",
"{  c #715847",
"}  c #95D0E3",
"|  c #8DC1D1",
" . c #90CEE2",
".. c #92CDE1",
"X. c #705747",
"o. c #89BBC9",
"O. c #91CEE2",
"+. c #A5D5E7",
"@. c #A0C9D7",
"#. c #A1D4E6",
"$. c #90CDE1",
"%. c #A4CAD8",
"&. c #A5D6E8",
"*. c #A3D4E6",
"=. c #8FCDE2",
"-. c #94CEE2",
";. c #8BBBCA",
":. c #8FCCE0",
">. c #735848",
",. c #9DC3CF",
"<. c #A2D5E7",
"1. c #90CDE0",
"2. c #A9D7E9",
"3. c #A1D3E5",
"4. c #A6D7E9",
"5. c #AAD7E8",
"6. c #5E402D",
"7. c #93CEE1",
"8. c #A8D7E8",
"9. c #A1D4E5",
"0. c #A2D4E6",
"q. c #96CFE2",
"w. c #573B29",
"e. c #A3D5E6",
"r. c #745948",
"t. c #684531",
"y. c #513727",
"u. c #4C3425",
"i. c #473122",
"p. c #493223",
"a. c #573A29",
"s. c #8FCDE0",
"d. c #674430",
"f. c #422D20",
"g. c #432E20",
"h. c #452F21",
"j. c #553928",
"k. c #422E20",
"l. c #463021",
"z. c #483122",
"x. c #4C3424",
"c. c #684530",
"v. c #4B3324",
"b. c #463022",
"n. c #442F21",
"m. c #674530",
"M. c #6D4933",
"N. c #724D36",
"B. c #583C2A",
"V. c #543928",
"C. c #9FC4D0",
"Z. c #93CFE3",
"A. c #8EBCCB",
"S. c #A4D5E7",
"D. c #A0D3E5",
"F. c #92CFE3",
"G. c #A4D6E8",
"H. c #9CC2CF",
"J. c #765F51",
"K. c #A4CBD8",
"L. c #AAD9EA",
"P. c #7D553C",
"I. c #765E4F",
"U. c #A0C4CF",
"Y. c #A6D0E0",
"T. c #A6D0DF",
"R. c #A6D1E0",
"E. c #9EBEC8",
"W. c #734D37",
"Q. c #6F4E3A",
"!. c #796558",
"~. c #7A685C",
"^. c #7A685B",
"/. c #786456",
"(. c #6E4C38",
"). c #6D4832",
"_. c #7B533A",
"`. c #6C4834",
"'. c #6E4A35",
"]. c #5E3F2C",
"[. c #61412E",
"{. c #61422E",
"}. c #60412E",
"|. c #5A3D2A",
" X c #5A3D2B",
".X c white",
/* pixels */
"                                                                                                                                ",
"    . . . . . . . . . . . . . X o o o o o o o o o o o o o O         . . . . . . . . . . . . O o o o o o o o o o o o o o o O +   ",
"  @ # $ $ $ $ $ $ $ $ $ $ $ % & * = = = = = = = = = = = = - O     . ; : $ $ $ $ $ $ $ $ $ > , = = = = = = = = = = = = = = < 1   ",
"  2 3 4 5 5 5 5 5 5 5 5 5 5 5 6 7 8 8 8 8 8 8 8 8 8 8 8 9 = o     . : 4 5 5 5 5 5 5 5 5 5 0 q 8 8 8 8 8 8 8 8 8 8 8 8 8 9 w e   ",
"  2 3 r t y y y y y y y y y y q 8 8 8 8 8 8 8 8 8 8 8 8 8 = o     . $ 5 t y y y y y y y y q 8 8 8 8 8 8 8 8 8 8 8 8 8 8 8 w e   ",
"  2 3 u 7 8 8 8 8 8 8 8 8 8 8 8 8 8 8 8 8 8 8 8 8 8 8 8 8 = o     . > 6 q 8 8 8 8 8 8 8 8 8 8 8 8 8 8 8 8 8 8 8 8 8 8 8 8 w e   ",
"  2 3 u 7 8 8 8 8 8 8 8 8 8 8 8 8 8 8 8 8 8 8 8 8 8 8 8 8 = o     o , q 8 8 8 8 8 8 8 8 8 8 8 8 8 8 8 8 8 8 8 8 8 8 8 8 8 w e   ",
"  O i 6 7 8 8 8 q q q q q q q q q q q q q q q q q q q q 8 = o     o = 8 q q q q q q q q q q q q q q q q q q q q 8 8 8 8 8 w e   ",
"  e p q 8 8 8 w a 5 s s s s s s s s s s s s s s s s 5 6 q = o     o = q 6 5 s s s s s s s s s s s s s s s s 5 a w 8 8 8 8 w e   ",
"  e w 8 8 8 8 w d f g h j j j j j j j j j j j j j k l 5 q = o     o = q 5 l k j j j j j j j j j j j j j j z x d w 8 8 8 8 w e   ",
"  e w 8 8 8 8 w c v b n m M M M M M M M M M M M N B V s q = o     o = q s V B N M M M M M M M M M M M M C Z A c w 8 8 8 8 w e   ",
"  e w 8 8 8 8 w c S D F G H H H H H H H H H H H J K L P q = o     o = q P L K J H H H H H H H H H H H H J I U c w 8 8 8 8 w e   ",
"  e w 8 8 8 8 w c S Y T R E E E E E E E E E E E H C L P q = o     o = q P L C H E E E E E E E E E E E E W Q ! c w 8 8 8 8 w e   ",
"  e w 8 8 8 8 w c S Y T R E E E E E E E E E E E H C L P q = o     o = q P L C H E E E E E E E E E E E E W Q ! c w 8 8 8 7 = e   ",
"  e w 8 8 8 8 w c S Y T ~ E E E E E E E E E E E H C L P q = o     o = q P L C H E E E E E E E E E E E E W Q ! c w 8 8 7 ^ i O   ",
"  e w 8 8 8 8 w c S Y T / ~ E E E E E E E E E E H C L P q = o     o = q P L C H E E E E E E E E E E E E W Q ! c w 8 8 7 u 3 2   ",
"  e w 8 8 8 8 w c S Y ( ) _ ~ E E E E E E E E E H C L P q = o     o = q P L C H E E E E E E E E E E E E W Q ! c w 8 8 7 u 3 2   ",
"  e w 8 8 8 8 w c S Y ` ' ] R E E E E E E E E E H C L P q = o     o = q P L [ G E E E E E E E E E E E E W Q ! c w 8 8 7 u 3 2   ",
"  e w 8 8 8 8 w c S Y ` ' ] R E E E E E E E E E H C L P q = o     o = q s { n } R E E E E E E E E E E E W Q ! c w 8 8 7 u 3 2   ",
"  e w 8 8 8 8 w c S |  .' ../ ~ E E E E E E E E H C L P q = o     o = q s X.o.O.+.E E E E E E E E E E E W Q ! c w 8 8 7 u 3 2   ",
"  e w 8 8 8 8 w c ! @.#.$.' ) _ ~ E E E E E E E H C L P q = o     o = q s X.o.O.+.E E E E E E E E E E E W Q ! c w 8 8 7 u 3 2   ",
"  e w 8 8 8 8 w c ! %.&.$.' ' ..R E E E E E E E H C L P q = o     o = q s X.o.O.*.~ R ~ E E E E E E E E W Q ! c w 8 8 7 u 3 2   ",
"  e w 8 8 8 8 w c ! %.&.$.' ' ..R E E E E E E E H C L P q = o     o = q s X.o.=...] ] -.R E E E E E E E W Q ! c w 8 8 7 u 3 2   ",
"  e w 8 8 8 8 w c ! %.&.$.' ' ) / ~ E E E E E E H C L P q = o     o = q s { ;. .' ' ' $.+.E E E E E E E W Q ! c w 8 8 7 u 3 2   ",
"  e w 8 8 8 8 w c ! %.&.$.' ' :..._ ~ E E E E E H C L P q = o     o = q P >.,.<.) ' ' ) +.E E E E E E E W Q ! c w 8 8 7 u 3 2   ",
"  e w 8 8 8 8 w c ! %.&.] 1.' ' ' ) / ~ E E E E H C L P q = o     o = q P L C G ) ' ' ) +.E E E E E E E W Q ! c w 8 8 7 u 3 2   ",
"  e w 8 8 8 8 w c ! Q 2.+.3.$.' ' :..._ R E E E H C L P q = o     o = q P L C 4.) ' ' ) +.E E E E E E E W Q ! c w 8 8 7 u 3 2   ",
"  e w 8 8 8 8 w c ! Q W 5.+.$.' ' ' ' ) R E E E H C L P q = o     o = q P L C 4.) ' ' $.*.~ E E E E E E W Q ! c w 8 8 7 6 & 2   ",
"  e w 8 8 8 8 w c ! Q W E +.$.' ' ' ' ..R E E E H C L P q = o     o = q P L C 4.) ' ' ' .._ R E E E E E W Q ! c w 8 8 8 y * 6.  ",
"  e w 8 8 8 8 w c ! Q W E +.] 1.' ' ' ..R E E E H C L P q = o     o = q P L C G 7.1.' ' ' $.+.E E E E E W Q ! c w 8 8 8 8 w e   ",
"  e w 8 8 8 8 w c ! Q W E 8.+.9.$.' ' ..R E E E H C L P q = o     o = q P L C W +.0.) ' ' ) +.E E E E E W Q ! c w 8 8 8 8 w e   ",
"  e w 8 8 8 8 w c ! Q W E E 5.+.] 1.' ) / ~ E E H C L P q = o     o = q P L C H E R 7.1.' ) +.E E E E E W Q ! c w 8 8 8 8 w e   ",
"  e w 8 8 8 8 w c ! Q W E E E 8.+.9.$.' ] q.R E H C L P q t o     o = q P L C H E 8.+.0.) $.+.E E E E E W Q ! c w 8 8 8 8 w e   ",
"  e w 8 8 8 8 w c ! Q W E E E E 5.+.) ' ' ) R E H C L c * - . w.  o = q P L C H E E E R ) $.e.~ E E E E W Q ! c w 8 8 8 8 w e   ",
"  e w 8 8 8 8 w c ! Q W E E E E E +.) ' ' ..R E H C r.t.y.u.i.p.a.o t q P L C H E E E R ) ' ] _ R E E E W Q ! c w 8 8 8 8 w e   ",
"  e w 8 8 8 8 w c ! Q W E E E E E +.] s.' ) / ~ W C r.d.i.f.g.h.j.X - * c L C H E E E R ..' ' $.+.E E E W Q ! c w 8 8 8 8 w e   ",
"  e w 8 8 8 8 w c ! Q W E E E E E 8./ 3.$.' ] q.G C r.d.i.k.g.g.l.z.x.y.t.r.C H E E E R ) ' ' $.+.E E E W Q ! c w 8 8 8 8 w e   ",
"  e w 8 8 8 8 w c ! Q W E E E E E E 5.+.) ' ' ) 4.C r.c.v.b.h.n.n.n.l.v.m.r.C H E E E R 7.s.' $.e.~ E E W Q ! c w 8 8 8 8 w e   ",
"  e w 8 8 8 8 w c ! Q W E E E E E E E +.) ' ' ) G C L M.N.r B.V.V.B.r N.M.L C H E E E 8.+.#.) ' ] _ +.E W Q ! c w 8 8 8 8 w e   ",
"  e w 8 8 8 8 w c ! Q W E E E E E E E +.) ' ' ) &.C.L s 7 t o     o t 7 s L C H E E E E E R ..' ' $.+.E W Q ! c w 8 8 8 8 w e   ",
"  e w 8 8 8 8 w c ! Q W E E E E E E E +.) ' ' :.Z.A.{ s q = o     o = q P L C H E E E E E R ..' ' $.+.E W Q ! c w 8 8 8 8 w e   ",
"  e w 8 8 8 8 w c ! Q W E E E E E E E +.] :.' ' ` o.X.s q = o     o = q P L C H E E E E E R ..' ' $.+.E W Q ! c w 8 8 8 8 w e   ",
"  e w 8 8 8 8 w c ! Q W E E E E E E E 8.S.D.$.' ` o.X.s q = o     o = q P L C H E E E E E R ) ' ' $.+.E W Q ! c w 8 8 8 8 w e   ",
"  e w 8 8 8 8 w c ! Q W E E E E E E E E 5.R ] :.` o.X.s q = o     o = q P L C H E E E E E R 7.:.' $.+.E W Q ! c w 8 8 8 8 w e   ",
"  e w 8 8 8 8 w c ! Q W E E E E E E E E E 8./ D.O.o.X.s q = o     o = q P L C H E E E E E 8.S.#.) $.+.E W Q ! c w 8 8 8 8 w e   ",
"  e w 8 8 8 8 w c ! Q W E E E E E E E E E E 5.+.O.o.X.s q = o     o = q P L C H E E E E E E E ~ ..$.+.E W Q ! c w 8 8 8 8 w e   ",
"  e w 8 8 8 8 w c ! Q W E E E E E E E E E E E +.O.o.X.s q = o     o = q P L C H E E E E E E E R ..$.+.E W Q ! c w 8 8 8 8 w e   ",
"  e w 8 8 8 8 w c ! Q W E E E E E E E E E E E +.F.;.h s q = o     o = q P L C H E E E E E E E R 7.) +.E W Q ! c w 8 8 8 8 w e   ",
"  e w 8 8 8 8 w c ! Q W E E E E E E E E E E E 8.G.H.>.P q = o     o = q P L C H E E E E E E E 8./ / 8.E W Q ! c w 8 8 8 8 w e   ",
"  e w 8 8 8 8 w c ! Q W E E E E E E E E E E E E H C L P q = o     o = q P L C H E E E E E E E E E E E E W Q ! c w 8 8 8 8 w e   ",
"  e w 8 8 8 8 w c ! Q W E E E E E E E E E E E E H C L P q = o     o = q P L C H E E E E E E E E E E E E W Q ! c w 8 8 8 8 w e   ",
"  e w 8 8 8 8 w c ! Q W E E E E E E E E E E E E H C L P q = o     o = q P L C H E E E E E E E E E E E E W Q ! c w 8 8 8 8 w e   ",
"  e w 8 8 8 8 w c J.K.H 2.2.2.2.2.2.2.2.2.2.2.2.L.N L P q = o     o = q P L N L.2.2.2.2.2.2.2.2.2.2.2.2.H K.J.c w 8 8 8 8 w e   ",
"  e t P.8 8 8 w c I.U.Y.T.T.T.T.T.T.T.T.T.T.T.T.R.E.j P q = o     o = q P j E.R.T.T.T.T.T.T.T.T.T.T.T.T.Y.U.I.c w 8 8 8 8 w e   ",
"  O 5 W.7 8 8 w d Q.!.~.^.^.^.^.^.^.^.^.^.^.^.^.~./.(.5 q = o     o = q 5 (./.~.^.^.^.^.^.^.^.^.^.^.^.^.~.!.Q.d w 8 8 8 8 w e   ",
"  2 3 u 7 8 8 w r 4 ).).).).).).).).).).).).).).).).4 u q = o     o * w u 4 ).).).).).).).).).).).).).).).).4 r w 8 8 8 8 w e   ",
"  2 3 u 7 8 8 P.t t t t t t t t t t t t t t t t t t t _.8 = o     @ 4 ^ p t t t t t t t t t t t t t t t t t t t P.8 8 8 8 w e   ",
"  2 3 u 7 8 8 8 8 8 8 8 8 8 8 8 8 8 8 8 8 8 8 8 8 8 8 8 8 = o     . % 5 y 8 8 8 8 8 8 8 8 8 8 8 8 8 8 8 8 8 8 8 8 8 8 8 8 w e   ",
"  2 3 u 7 8 8 8 8 8 8 8 8 8 8 8 8 8 8 8 8 8 8 8 8 8 8 8 8 = o     . $ 5 y 8 8 8 8 8 8 8 8 8 8 8 8 8 8 8 8 8 8 8 8 8 8 8 8 w e   ",
"  2 3 u y P.8 8 8 8 8 8 8 8 8 8 8 8 8 8 8 8 8 8 8 8 8 8 8 = o     . $ 5 w P.8 8 8 8 8 8 8 8 8 8 8 8 8 8 8 8 8 8 8 8 8 8 8 w e   ",
"  2 3 d a W.7 8 8 8 8 8 8 8 8 8 8 8 8 8 8 8 8 8 8 8 8 8 8 = o     . $ 4 u N.q 8 8 8 8 8 8 8 8 8 8 8 8 8 8 8 8 8 8 8 8 8 8 w e   ",
"  @ $ `.> '._.q q q q q q q q q q q q q q q q q q q q q 7 * o     . % `.> 4 t q q q q q q q q q q q q q q q q q q q q q q = e   ",
"  + o ].o ].[.[.[.[.[.[.[.[.[.[.[.[.[.[.[.[.[.[.[.[.[.[.{.}.|.      O ].o ].[.{.[.[.[.[.[.[.[.[.[.[.[.[.[.[.[.[.[.[.[.[.{.[. X  ",
"            B.B.B.B.B.B.B.B.B.B.B.B.B.B.B.B.B.B.B.B.B.B.B.B.                B.B.B.B.B.B.B.B.B.B.B.B.B.B.B.B.B.B.B.B.B.B.B.B.    "
};
