/* XPM */
static char *_c7f0aac1f4a47d7ce9189ec1186bb84uvKtMPBee6qBiz0B[] = {
/* columns rows colors chars-per-pixel */
"64 64 225 2 ",
"   c None",
".  c #030302",
"X  c #090906",
"o  c #0D0D0D",
"O  c #080706",
"+  c #0D0E12",
"@  c #121213",
"#  c #15161C",
"$  c #17181E",
"%  c #1A1B1E",
"&  c #191917",
"*  c #0F1010",
"=  c #21211F",
"-  c #1C1D22",
";  c #1B1E2C",
":  c #151725",
">  c #1F2022",
",  c #1F212D",
"<  c #1D2033",
"1  c #232425",
"2  c #292926",
"3  c #25262A",
"4  c #272829",
"5  c #2B2C2A",
"6  c #282722",
"7  c #222533",
"8  c #262837",
"9  c #2C2E34",
"0  c #262939",
"q  c #2A2D3B",
"w  c #21253A",
"e  c #2E313D",
"r  c #2F3033",
"t  c #323439",
"y  c #373938",
"u  c #42423B",
"i  c #2A2E42",
"p  c #292E4B",
"a  c #2E3244",
"s  c #2E324A",
"d  c #323544",
"f  c #353945",
"g  c #3A3D44",
"h  c #31354C",
"j  c #35394A",
"k  c #363B54",
"l  c #373C56",
"z  c #2F3450",
"x  c #373E62",
"c  c #3E414C",
"v  c #3E4044",
"b  c #3E435B",
"n  c #3F4352",
"m  c #3D4466",
"M  c #42454C",
"N  c #4A4C4D",
"B  c #464746",
"V  c #53524A",
"C  c #424552",
"Z  c #4A4D51",
"A  c #42465D",
"S  c #454A5E",
"D  c #454855",
"F  c #4E5154",
"G  c #4D515B",
"H  c #525455",
"J  c #5C5C54",
"K  c #52565A",
"L  c #585A58",
"P  c #504F47",
"I  c #616155",
"U  c #64645A",
"Y  c #68685D",
"T  c #414767",
"R  c #454A63",
"E  c #484E68",
"W  c #454B67",
"Q  c #4D5266",
"!  c #4E546B",
"~  c #5B5E62",
"^  c #50566C",
"/  c #55596E",
"(  c #5A5E69",
")  c #444B73",
"_  c #474F74",
"`  c #4B5275",
"'  c #4D547B",
"]  c #565D7D",
"[  c #575D77",
"{  c #5D6168",
"}  c #5D637E",
"|  c #5E6371",
" . c #676965",
".. c #747469",
"X. c #626775",
"o. c #656975",
"O. c #686C77",
"+. c #6C7179",
"@. c #757A7D",
"#. c #7B7D7C",
"$. c #737677",
"%. c #8A8A7C",
"&. c #545C85",
"*. c #585F80",
"=. c #555D89",
"-. c #4F5784",
";. c #5B6281",
":. c #5C648B",
">. c #576089",
",. c #5F6790",
"<. c #606682",
"1. c #636A8E",
"2. c #60678C",
"3. c #6C728B",
"4. c #6B7187",
"5. c #767B83",
"6. c #767B87",
"7. c #646C91",
"8. c #686F91",
"9. c #6B7293",
"0. c #6C7598",
"q. c #727A96",
"w. c #747C9B",
"e. c #757B94",
"r. c #7D828B",
"t. c #7B8085",
"y. c #7B829B",
"u. c #7D8293",
"i. c #7B83A2",
"p. c #7780A0",
"a. c #81868B",
"s. c #858A8D",
"d. c #8B8E8C",
"f. c #8E918E",
"g. c #929283",
"h. c #92948B",
"j. c #9B9C8E",
"k. c #97998F",
"l. c #858B92",
"z. c #868B9B",
"x. c #868B99",
"c. c #8C9198",
"v. c #989A96",
"b. c #A3A392",
"n. c #A8A899",
"m. c #A2A28F",
"M. c #838AA5",
"N. c #898FA3",
"B. c #848CA9",
"V. c #888FA9",
"C. c #8C92A4",
"Z. c #8C94AB",
"A. c #999FA5",
"S. c #9399AB",
"D. c #9298A6",
"F. c #8D95B0",
"G. c #939BB2",
"H. c #999FB4",
"J. c #9DA2A7",
"K. c #9BA2B4",
"L. c #9CA4BA",
"P. c #9FA8BD",
"I. c #A4A6A3",
"U. c #AAADAE",
"Y. c #A5A8AB",
"T. c #B9BAAA",
"R. c #A0A7B2",
"E. c #A3ABBD",
"W. c #A5ACB6",
"Q. c #ADB4BC",
"!. c #AEB1B4",
"~. c #B4BABD",
"^. c #BABEBD",
"/. c #B3B7B7",
"(. c #9FA196",
"). c #BDC1BE",
"_. c #C4C6B9",
"`. c #D0D1BF",
"'. c #A5ADC2",
"]. c #AAB2C3",
"[. c #AFB8CA",
"{. c #B4BBC2",
"}. c #BABEC2",
"|. c #B6BECA",
" X c #B3B9C5",
".X c #BDC2C4",
"XX c #BBC2CD",
"oX c #B7C0CC",
"OX c #BDC5D2",
"+X c #BFC8D2",
"@X c #C1C4C2",
"#X c #CBCDC4",
"$X c #C5CACB",
"%X c #C6CAC9",
"&X c #CDD1C9",
"*X c #D3D3C1",
"=X c #DADAC4",
"-X c #D2D5CD",
";X c #DBDCCD",
":X c #D7D8C9",
">X c #C4CCD5",
",X c #C9CFD4",
"<X c #C6CED9",
"1X c #CBD2D6",
"2X c #CCD3D9",
"3X c #D1D6D2",
"4X c #DBDDD2",
"5X c #D3D9DC",
"6X c #D9DEDA",
"7X c #D4D9D6",
"8X c #DFE0CF",
"9X c #DEE1D3",
"0X c #DDE1DC",
"qX c #E1E3D2",
"wX c #EBEDDB",
"eX c #E4E6DB",
"rX c #F1F2DD",
"tX c #E6E6D1",
"yX c #D2DAE1",
"uX c #D8DFE1",
"iX c #DDE3E4",
"pX c #E4EAE5",
"aX c #E8ECE4",
"sX c #ECF0E7",
"dX c #F6F8E6",
/* pixels */
"                                        . . . . . . . . . . . . . . . . . . . . . . . . O O O X                                 ",
"                                        o o o * o o o o o o o o o o o o o o o o + + o o o o o o                                 ",
"                                        2 5 5 5 4 3 3 4 4 4 3 4 3 3 4 4 4 3 3 2 5 5 2 6 - % # #                                 ",
"                                      u V J J J L H F F F H F F H F H F F H H L I I J N g q 7 - #                               ",
"                          . . . . O 6 V ..g.k.k.h.s.a.r.a.a.a.a.a.a.r.a.r.a.s.h.k.m.h.#.{ A h w : + .                           ",
"                        o o o O O o 5 I j.T.*X*X@X~.Q.Q.Q.Q.Q.Q.Q.Q.Q.Q.Q.Q.~._.#X`._.I.u.} T z < : * X                         ",
"                        2 2 4 % $ - y  .b.*XeXaX0X2X<X<X>X>X1X<X1X>X<X<X<X<X2X7X6X4X&XQ.S.q.;.Q g r 5 =                         ",
"                      y V J J N y q M +.I.-XsXsXpXuXyXyXyXyXyXyXyXyXyXyXyXyX5X2X&X%X}.Q.H.Z.y.3.+. .J P y                       ",
"                  O = V ..%.g.#.{ S ^ 6.Y.,XpXpXiXyXyXyXyXyXyXyXyXyXyXyXuXyX<XXXE.K.S.H.K.L.L.Y.n.m.g...B = .                   ",
"                . * 5 J j.T._.Y.e.} ;.e.H.XX2X2X2X<X<X2X<X<X<X2X2X>X2X2X2X<XOXE.Z.w.e.M.L.].XX-X-X`._.%.J 5 + .                 ",
"                % 2 B ..n.*X;X^.Z.8.7.0.D.].|.OXOXXX|.|.|.|.|.|.|.|.oXXXXX|.].F.w.1.7.i.L.|.2XiXaXwX:Xn...u 5 =                 ",
"              r g Z  .d.^.;X6X.XZ.9.,.0.i.F.H.L.L.L.H.L.K.L.L.L.L.H.L.L.L.L.F.i.7.=.:.i.L.OXuXpXsXaX;XT.j...J P y               ",
"          o 4 v { @.c.U.#X3X1X{.V.8.=.:.7.w.i.w.w.w.p.p.w.i.i.w.w.p.y.i.i.w.w.7.>.&.2.i.P.OX2XiXiXiX6X`.T.n.g...V 2 o           ",
"        . o 4 N @.J.{.>X1X1XXXE.M.7.=.=.>.2.7.1.7.7.7.7.7.7.7.7.7.7.7.1.7.7.7.>.&.=.7.i.L.|.2X2X7X2X3X7X;X:XT.g.J 5 o .         ",
"        . o 4 F r.Q.<X2X<XXX].G.w.7.=.=.2.7.9.9.9.9.9.7.7.7.7.7.7.8.9.7.7.7.7.>.&.&.1.w.G.].|.>X>X>X2XiXaXwX`.k.J 5 o .         ",
"        . o 4 K d.{.<X<X|.E.F.y.8.;.=.1.w.N.C.S.D.Z.C.Z.M.M.M.N.Z.Z.C.Z.V.M.w.0.:.=.>.8.i.G.E.].XX>X2XpXsXaX*Xk.J 5 o .         ",
"        . o 4 K l.{.>XOXP.B.w.7.>.=.:.e.S./..X@X#X@X}. XE.E.E.].]..X.X.X{.E.L.i.9.:.&.:.7.q.B.L.[.+X2XiXpXiX.Xf.L 2 o .         ",
"        . o 4 H s.~.XX].F.w.,.>.-.=.8.z.!.&XqXqXqXtX;X-X$XXXXX$X-X;X-X3X,XXX'.F.w.,.&.-.>.,.w.B.E.XX2XyXuX2X~.s.H 4 o .         ",
"        . o 4 Z 6.K.].P.B.w.7.,.:.7.w.C.!._.*X=X=X`.*X_.).~.~..X_.*X`.`.).).W.S.i.0.7.,.:.7.0.B.L.].OX>X2X<XQ.a.F 4 o .         ",
"        O o 1 c X.N.G.G.F.i.i.i.i.B.B.C.j.b.b.b.b.m.j.k.h.d.d.f.k.(.m.k.h.s.l.x.z.M.B.B.i.i.B.B.F.G.P.[.OX+XQ.a.F 4 o .         ",
"        O o % d Q 3.i.F.G.L.E.'.'.E.K.c.%...I I I I I J L H H L J I J J H L { $.z.K.E.'.'.P.L.F.B.i.B.L.[.XXQ.r.H 4 o .         ",
"        O o $ q b ] 0.B.L.].|.+XOX|.W.l.{ g 5 6 2 5 5 5 5 4 4 4 5 5 5 6 > 4 y { u.W.oX+XOX|.].H.i.w.q.Z.'.oXQ.s.K 4 o .         ",
"        O * % e R } q.N.H.W.Q.{.{.Q.J.5.F 9 - % - 4 3 1 - % - - > 4 1 > % > 9 F 5.J.Q..X{.Q.W.S.y.q.w.F.].XX!.s.H 4 o .         ",
"        O o > y ( r.z.C.c.l.s.s.d.s.@.{ C q 8 q f M M g t 8 8 t v c c v q 8 e n { @.s.r.d.s.l.l.z.C.S.E.|.>X].s.H 4 o .         ",
"        . o 1 Z #.n.Y.v.5. .F F Z F Z C n k b Q o.@.5.| Q A b Q | 5.@.o.! b j n M Z F Z Z L  .$.v.U.).>X1X>XQ.s.H 3 o .         ",
"        . o 4 J k._._.I...B 4 > > 4 9 d l W ] q.C.K.K.N.9.*.] 3.C.K.K.C.e.} m k d 9 4 1 = 4 u  .j._.4XeXiX1XQ.r.H 3 o .         ",
"        . o 5 U b.`.*XI. .y - # % 4 r h A ' 1.B.E.OXXXW.i.7.1.M.P.XXXXE.B.,.' m h r 3 - # - y  .n.:XrXdXaX2XQ.r.F 3 o .         ",
"        . * 5 Y j.`.:XU.$.c 0 q g N G Q ` &.0.F.oX2X3X XV.8.8.V.{.3X5XoXF.0.;.` Q G N y 9 0 c $.n.8XdXdXsX5X~.r.F 4 o .         ",
"        . o 5 L v.%X&XW.6.! A Q o.5.r.6.1.:.0.S..X9X6X}.C.9.9.C.{.7X6X.XS.0.:.1.6.r.6.X.Q S ^ 6.T.8XrXdXsX7X~.s.H 4 o .         ",
"        . o 4 H d.~.oXE.y.;.] 4.c.K.K.C.q.,.9.C.^.4X4X{.C.8.8.C.^.4X4X.XC.9.,.q.C.W.K.N.4.] <.z./.9XrXdXpX2XQ.r.F 4 o .         ",
"        . o 4 F 6.K.Q.G.q.;.*.q.F.E.].Z.3.} ;.u.U.%X#X!.M.1.8.M.!.#X#XU.u.} } 3.Z.E.E.Z.9.;.<.z./.;XrXaX6XOXW.6.N 1 o .         ",
"        O o > M O.C.Z.y.;.Q W ;.y.S.F.y.} R R X.l.Y.U.S.q.:.:.e.D.W.Y.l.O.S m } y.Z.G.y.} E / 6.U.3XeX6X>X'.C.X.c > o O         ",
"        X o - f / 3.q.<.W d d R } q.q.} A i a D X.u.z.e.1.=.&.1.w.z.e.X.S a i A } 9.e.;.A j C O.I.%X7X>X].F.0.^ d % o O         ",
"        X o : e R ] ] E d 3 7 d E ] ] E d 3 7 d E ;.7.7.2.=.=.:.7.1.X.Q f 3 3 f E ] *.R a 7 t ~ f.{.XX[.G.q.] b q % o O         ",
"        X o # 8 k T T l 0 , 7 f E ;.<.! n t t c ^ <.8.9.9.8.8.9.0.9.<.^ c t e M / <.} R q - 6 N $.A.R.S.e.] m p , # o O         ",
"          o # 7 i h z s i 0 f R } e.w.3.| ~ ~  .6.x.C.S.S.D.S.S.S.C.z.6.O.~ ~ O.r.x.u.{ y - % r H O.5.X.^ l i < # + O O X       ",
"              - , 7 0 i a l W ;.y.G.L.H.c.c.c.A.U.^.}.@X@X@X@X@X@X@X~.U.A.c.v.J.!./.Y.#.N 6 @ = r v M g a 7 ; # + X O O X o o o ",
"                @ $ ; 8 h T } q.S.'.|.}. X X~.@X&X;XqXqXqX8X8X8XqX4X:X-X@X~.~.%X-X:X_.g.J 6 @ o % 1 2 6 > : # & + + o o + o o o ",
"                X o # 7 z T ] 3.N.R.Q. X}.|.XX.X#X*X*X=X;X8X8X8X;X*X*X_.^.~.~.%X-X;X_.h.J 2 @ @ % 6 5 5 5 5 5 5 5 5 2 = & * o X ",
"                  X + , i k S / O.5.s.D.H.K.L.Y.I.n.b.T.T._.^./.T.n.b.k.f.f.c.J.!./.I.#.N 1 & = y P I I I I U Y Y Y J u 5 & + X ",
"                      - ; 7 q d v N K X.3.w.y.6.+. .Y $.s.c.c.l.$. .U J L L ~ +.6.z.u.{ g > = u Y %.m.b.m.m.m.n.n.n.%.Y u = o O ",
"                        # - % - > 4 e C ^ ;.;.^ M t y M / <.<./ M y 5 6 6 2 e C / <.} R q % 2 V %.T.`.=X=X=X=X=X8X`.T.%.J 2 o . ",
"                        # # : % > 4 t D / <.;.Q d 7 < i b _ _ m p 3 % @ # : 3 j ! ;.] S q % 2 J j.`.rXdXdXrXrXrXrXqX_.g.H 2 o . ",
"                      - ; , 8 t g Z ~ O.r.z.e.X.A q w p x ) ) x s w ; ; : ; i R O.u.6.( t - 5 J j.`.sXdXdXdXaXeX4X#XY.#.P 4 o . ",
"                  o # ; 0 h b ! O.6.c.I.!./.Y.l.X.b z x m ) ) ) x k h p p z A O.c.R.(.#.B = 2 H d.@XeXsXsXpX6X,X{.R.x.( g > o O ",
"                X o # 7 h T ] q.N.R.~.%X:X;X#XU.z.X.' _ -.-.&.' ' _ _ ) ) _ <.z.!.#X_.h.L 5 2 F a.~.2XuXuX5X>X].G.w.;.A q % o O ",
"                O o $ q b *.9.i.Z.E.}.-X9XeX4X@XR.w.8.1.1.7.7.7.7.1.1.:.2.8.y.R.%X9X*X(.U y r G s.Q.<X2X<X|.].G.w.7._ k 7 $ o O ",
"                . o % f / q.N.Z.z.c.v.!.#X9X0X3X{.R.S.D.D.C.C.N.B.M.B.B.V.S.R.}.3XqX&XI.O.D n | z.].>X>X[.'.G.M.0.=.) k 7 # o X ",
"                . X 1 M +.Z.K.C.5.{ o.s.U.#X0X7X3X%X).).).).^.~.E.E.E.E.~..X%X3X0X0X&XJ.6./ ! 3.D. XOX|.L.B.p.0.,.&.) l w $ o O ",
"                O + 3 Z 6.W.K.l.{ g u { c..X2X0X0X9X9XtXqX9X4X-X&XXX$X,X-X4X9X9X0X2XXXK.q.;.;.e.K.|.|.'.F.w.,.:.=.&._ l 0 $ o X ",
"                + $ 9 K 6.J.A.$.B 4 4 F r./.1X0X0X9XtXwXwXrXwXeX6X2X2X3X7X4X4X6X7X1XoXS.q.>.;.w.L.|.OXE.i.7.=.-.&.&.) l 8 $ o O ",
"              # ; 0 j G o.6.$.L t & > N r./.<X1X$X%X%X-X9XaXsXaXpXyX2X1X$X%X$X&X1X>X|.S.4.! / 3.H.|.|.'.B.,.&.-.&.&._ l 0 $ o X ",
"          O + , a k b R G G N t = @ 1 F s.Q.>XXX].K.K.~.$X6XpXpXiXyX<XXX].K.K.Q.XX>X{.c.| C n X.D.{.OX'.B.7.&.-.=.&._ b 0 # o O ",
"        o o $ 8 k T W b f 9 = & o o 4 H s.Q.oX'.Z.y.w.C.E.>X2X2XyX<XXXE.V.q.w.Z.].oXQ.l.K r t K l.Q.|.'.i.7.&.-.-.-._ l 8 $ o O ",
"        1 4 r h b T m l 0 $ o O O o 4 F r.R.].G.q.;.] 8.z.K.Q.^.{.Q.R.z.4.;.;.0.K.E.W.6.N 4 4 B $.A.K.C.q.] ` ) _ _ T k 8 $ o X ",
"      y B F K G A b k i , * . . . o > C +.C.G.y.} R b Q X.5.a.s.s.a.6.X.Q b R } y.F.C.O.M = % r L $.5.+./ R l l l l h a , $ o X ",
". o 1 Z  .t.t.o.G f 0 , :     . . o - j ( 0.q.;.W a q e g N F H H F N g t q a R <.q.9.( f % @ 1 t N Z M f q 8 8 8 8 8 , ,       ",
". o 4 F t.A.A.t.G 9 % +         O o % e R ] *.E d , - % - 4 3 4 4 3 4 % - : 3 h W ] ] R e % @ @ & > 1 1 > $ $ $ $ $ $ $         ",
". o 1 Z @.A.J.5.H 4 o .         X o $ w k T T k 8 # o X o o o o o o o X o + # 7 k T W l 0 $ o X o o o o o o o o o o o o         ",
"O o = y { @.t.O.N 1 X             o # 3 i d s 0 - @ X O O . . . . . O O O X @ - 0 s h i 7 # o O . . . O O X X X O O O           ",
"X o # 4 y Z H N y                     ; 3 7 , ; # * X X O             O O X o # - 7 7 < ,                                       ",
"o o * & % 1 4 4                         # # # @ + + o o                 o o + * @ # # #                                         ",
"o o o o o o + o                         + o + o o o o o                 o o o o o + o o                                         ",
"o o o X O O . .                         O O X X X o o o                 o o o o X X X X                                         "
};
