/* XPM */
static char *_2dcfa0c54a547efc6e61aa8eff4d834qoaq0noe8NMX6Psv[] = {
/* columns rows colors chars-per-pixel */
"64 64 8 1 ",
"  c #87C26F",
". c #83C16A",
"X c #68BB46",
"o c #64BA41",
"O c #63BA40",
"+ c #87C26E",
"@ c #6CBC4B",
"# c white",
/* pixels */
"       .XooX.  .XooX.          .XooX.  .XooX.          .XooX.   ",
"       .XooX.  .XooX.          .XooX.  .XooX.          .XooX.   ",
"       .XooX.  .XOOX.          .XooX.  .XOOX.          .XooX.   ",
"....+  .XooX.  .@XX@.  +....+  .XooX.  .@XX@.  +....+  .XooX.   ",
"XXX@.  .XooX.  +....+  .@XX@.  .XooX.  +....+  .@XX@.  .XooX.   ",
"ooOX.  .XooX.          .XOOX.  .XooX.          .XOOX.  .XooX.   ",
"oooX.  .XOOX.          .XooX.  .XOOX.          .XooX.  .XOOX.   ",
"oooX.  .@XX@.  +....+  .XooX.  .@XX@.  +....+  .XooX.  .@XX@.   ",
"oooX.  +....+  .@XX@.  .XooX.  +....+  .@XX@.  .XooX.  +....+   ",
"oooX.          .XOOX.  .XooX.          .XOOX.  .XooX.           ",
"ooOX.          .XooX.  .XOOX.          .XooX.  .XOOX.           ",
"XXX@.  +....+  .XooX.  .@XX@.          .XooX.  .@XX@.  +....+   ",
"....+  .@XX@.  .XooX.  +....+          .XooX.  +....+  .@XX@.   ",
"       .XOOX.  .XooX.                  .XooX.          .XOOX.   ",
"       .XooX.  .XOOX.                  .XOOX.          .XooX.   ",
"....+  .XooX.  .@XX@.          +....+  .@XX@.          .XooX.   ",
"XXX@.  .XooX.  +....+          .@XX@.  +....+          .XooX.   ",
"ooOX.  .XooX.                  .XOOX.                  .XooX.   ",
"ooOX.  .XOOX.                  .XooX.                  .XOOX.   ",
"XXX@.  .@XX@.  +....+  +....+  .XooX.          +....+  .@XX@.   ",
"....+  +....+  .@XX@.  .@XX@.  .XooX.          .@XX@.  +....+   ",
"               .XOOX.  .XOOX.  .XooX.          .XOOX.           ",
"               .XOOX.  .XooX.  .XOOX.          .XooX.           ",
"   +....+      .@XX@.  .XooX.  .@XX@.          .XooX.      +....",
"   .@XX@.      +....+  .XooX.  +....+          .XooX.      .@XXX",
"   .XOOX.              .XooX.                  .XooX.      .XOoo",
"   .XooX.              .XOOX.                  .XOOX.      .Xooo",
"   .XooX.  +....+      .@XX@.  +....+          .@XX@.      .Xooo",
"   .XooX.  .@XX@.      +....+  .@XX@.          +....+      .Xooo",
"   .XooX.  .XOOX.              .XOOX.                      .Xooo",
"   .XOOX.  .XooX.              .XooX.                      .XOoo",
"   .@XX@.  .XooX.              .XooX.  +....+  +....+      .@XXX",
"   +....+  .XooX.              .XooX.  .@XX@.  .@XX@.      +....",
"           .XooX.              .XooX.  .XOOX.  .XOOX.           ",
"           .XOOX.              .XOOX.  .XOOX.  .XooX.           ",
"....+      .@XX@.  +....+      .@XX@.  .@XX@.  .XooX.           ",
"XXX@.      +....+  .@XX@.      +....+  +....+  .XooX.           ",
"ooOX.              .XOOX.                      .XooX.           ",
"oooX.              .XooX.                      .XOOX.           ",
"oooX.  +....+      .XooX.  +....+  +....+      .@XX@.      +....",
"oooX.  .@XX@.      .XooX.  .@XX@.  .@XX@.      +....+      .@XXX",
"oooX.  .XOOX.      .XooX.  .XOOX.  .XOOX.                  .XOoo",
"ooOX.  .XooX.      .XOOX.  .XooX.  .XOOX.                  .Xooo",
"XXX@.  .XooX.      .@XX@.  .XooX.  .@XX@.  +....+  +....+  .Xooo",
"....+  .XooX.      +....+  .XooX.  +....+  .@XX@.  .@XX@.  .Xooo",
"       .XooX.              .XooX.          .XOOX.  .XOOX.  .Xooo",
"       .XOOX.              .XOOX.          .XooX.  .XOOX.  .XOoo",
"....+  .@XX@.  +....+      .@XX@.          .XooX.  .@XX@.  .@XXX",
"XXX@.  +....+  .@XX@.      +....+          .XooX.  +....+  +....",
"ooOX.          .XOOX.                      .XooX.               ",
"ooOX.          .XooX.                      .XOOX.               ",
"XXX@.  +....+  .XooX.          +....+      .@XX@.  +....+       ",
"....+  .@XX@.  .XooX.          .@XX@.      +....+  .@XX@.       ",
"       .XOOX.  .XooX.          .XOOX.              .XOOX.       ",
"       .XooX.  .XOOX.          .XooX.              .XooX.       ",
"....+  .XooX.  .@XX@.  +....+  .XooX.  +....+      .XooX.  +....",
"XXX@.  .XooX.  +....+  .@XX@.  .XooX.  .@XX@.      .XooX.  .@XXX",
"ooOX.  .XooX.          .XOOX.  .XooX.  .XOOX.      .XooX.  .XOoo",
"oooX.  .XOOX.          .XooX.  .XOOX.  .XooX.      .XOOX.  .Xooo",
"oooX.  .@XX@.  +....+  .XooX.  .@XX@.  .XooX.      .@XX@.  .Xooo",
"oooX.  +....+  .@XX@.  .XooX.  +....+  .XooX.      +....+  .Xooo",
"oooX.          .XOOX.  .XooX.          .XooX.              .Xooo",
"oooX.          .XooX.  .XooX.          .XooX.              .Xooo",
"oooX.          .XooX.  .XooX.          .XooX.              .Xooo"
};
