/* XPM */
static char *_91c252aaca04d7ca308ef279e3ec4a6bkRlciHyYpPA5FrX[] = {
/* columns rows colors chars-per-pixel */
"65 64 31 1 ",
"  c #684723",
". c #6E4C25",
"X c #714E26",
"o c #745127",
"O c #765329",
"+ c #79562A",
"@ c #7D592B",
"# c #815D2D",
"$ c #825E30",
"% c #86612F",
"& c #88632F",
"* c #856132",
"= c #8C6632",
"- c #8D6835",
"; c #8F6A38",
": c #926B33",
"> c #936D39",
", c #96703B",
"< c #9B753E",
"1 c #9F7940",
"2 c #A37C42",
"3 c #A78044",
"4 c #AB8446",
"5 c #AF8748",
"6 c #AF8849",
"7 c #B38B4B",
"8 c #B88F4D",
"9 c #BA914F",
"0 c #BE9551",
"q c #C19752",
"w c #C49A54",
/* pixels */
"2wwwwwqwwqwwqwwqwwwqwqwwwwwqwwwwwqwwqwwqwwqwwqwwqwwqwwqwwqwwqwww3",
"3wwwwwwwwwwwwwwwwwwwwwwwwwwwwwwwwwwwwwwwwwwwwwwwwwwwwwwwwwwwwwww3",
"3wwwwwwwwwwwwwwwwwwwwwwwwwwwwwwwwwwwwwwwwwwwwwwwwwwwwwwwwwwwwwww3",
"3wwwwwwwwwwwwwwwwwwwwwwwwwwwwwwwwwwwwwwwwwwwwwwwwwwwwwwwwwwwwwww3",
"3wwwwwwwwwwwwwwwwwwwwwwwwwwwwwwwwwwwwwwwwwwwwwwwwwwwwwwwwwwwwwww3",
"3wwwwwwwwwwwwwwwwwwwwwwwwwwwwwwwwwwwwwwwwwwwwwwwwwwwwwqqwwwwwwww3",
"3wwwwwwqq0000q0qqqqqqqqqqwwwqwwwqqqqwwqqwwwwqqwwqqqwqqq9qwwwwwww3",
"3wwwwww8;1>>1,;*=$****&$$$$$$$$$$$-$$$$$=$$$$$$$$=,>1;>117wwwwww3",
"2wwwwww5>008906$...XXXXXXoXXooooOOoXoXXoXoXXoXo O299999912wwwwww3",
"4wwwwww61qwwwww8$+o+*#&$#&#=#&#$$$$$&=#&#&&#$$##2wwwwwww12wwwwww3",
"2wwwwww61wqwwwww8=#@$:::::::::::::,:::::::::,:=2wwwwwwww12wwwwww3",
"4wwwqww610wwwwwww8=###:::::::::::::::::::::::$2wwwwwwwww12wwwwww3",
"2wwwwww61wwwwwwwwwq=#o#:::::::::::::::::::::#2wwwwwwwwww17wwwwww3",
"4wwwwww61wwwwwwwwww8&###:::::::::::::::::::=2wwwwwwwwwww19wwwwww3",
"2wwwwww610wwwwwwwwww8=###:::::::::::::::::#2wwwwwwwwwwww12wwwwww3",
"4wwwwww6$8wwwwwwwwwww8:###:::::::::::::,:#2wwwwwwwwwwwq1+2wwwwww3",
"2wwwwww6X$qwwwwwwwwwww8=#@#=$=$=&#=#=&=$$2wwwwwwwwwwwq1XX2wwwwww3",
"4wwwwww6X #8wwwwwwwwwwqq=#+X##+#######++5wwwwwwwwwwwq,. O7wwwwww3",
"4wwwwww6o. $8wwwwwwwwwww8-###::::::::$$4wwwwwwwwwwwq1.X#$7wwwwww3",
"2wwwwww6##  $8wwwqwwwwwwwq$#+#:::::::$4wwwwwwwwwww01XX#:$2wwwwww3",
"2wwwwww6#o  X$qwwwwwwwwwwwq-#+#::::&$5wwwwwwwwwww01.X#-:#7wwwwww3",
"4wwwwww6##X#oX#8wwwwwwwwwwq8=###:::#5wqwwwwwwwww01..#-::$8wwwwww3",
"2wwwwww6#oo#$+X#8wwwwwwqwwww8-###&#2wwwwwwwwwwwq1XX$=:::$2wwwwww3",
"5wwwwww6##X#:$oX#8wwwwwwwwwwqq;###7wwwwwwwwwwwq, X$;::::#8wwwwww3",
"2wwwwww5$+X#::&+X#8wwwwwwwwwwwq$#2wwwwwwwwwwwq,Xo#::::::#7wwwwww3",
"5wwwwww7#+X#:::&+X#8wwwwwwwwww8;5wwwwwwwwwwwq,XX#:::::::&2wwwwww3",
"2wwwwww6#+.O####+X.#8wwwwwwww8>5wwwwwwwwwwwq,..O####&####8wwwwww3",
"2wwwwww6#+.+&&$$$#X.#8wwwwww8,2wwwwwwwwwwwq:XX##&#=#&&###2wwwwww3",
"5wwwwww6#OX#::::::=+X#8wwww7>5wwwwwwwwwwwq,Xo#::::::::::#5wwwwww3",
"2wwwwww6#+X#:::::::$oX#7ww7>5wwwqwwwwwwwq:Xo#:::::::::::#5wwwwww3",
"2wwwwww6#+X#::::::::$+X#87>5wwwwwwwwwwwq,Xo#::::::::::::#7wwwwww3",
"5wwwwww6#OX#:::::::::=oX#-5wwwwwwwwwwwq:oX#:::::::::::::#5wwwwww3",
"4wwwwww5#+.#::::::::::&o@6wwwwwwwqwwwq,##@#=;:::::::::::#5wwwwww3",
"4wwwwww5#+.#::::::::::&%6wwwwwwwwwwqq,2q;#@#::::::::::::#5wwwwww3",
"3wwwwww5#+X#:::::::::=&6wwwwwwwwwwwq,2qw0;@@#=::::::::::#5wwwwww3",
"3wwwwww5#+.@:::::::=&&7wwwwww0wwwwq,2qwww0>#@#=:::::::==#7wwwwww3",
"3wwwwww5#+ o@@@@+@@+@7wwwwwwwwwwqq<2wwwwww0>#@O++###++##+5wwwwww3",
"3wwwwww5#+.#:-====&@7wwwwwwwwwwwq,2qwwwwwww0>#@+====:&==#7wwwwww3",
"2wwwwww5#+.#:::::&*7wwwwwwwwwww0,2wwwwwwwwww0;#@#&::::::#5wwwwww3",
"4wwwwww5#+X#::::&*7wwwwwwwwwww0;+5wwwwwwwwwwwq;+##::::::#5wwwwww3",
"3wwwwww5@@X@>:;=*7wwwwwwwww0w0;  #5wwwwwwwwwwwq1#+#=::::#5wwwwww3",
"3wwwwww5@@X@::&*7wwwwwwwwwww0;.XXX#6wwwwwwwwwwqq:###=:::#5wwwwww3",
"3wwwwww5@@O@:&&7wwwwwwwwwww0;Xo%=+X@6wwwwwwwwwwwq>###:::#5wwwwww3",
"3wwwwww5@+o@=&7wwwwwwwwwww0;Xo%-:$+X#6wwwwwwwwwwwq:+##::#7wwwwww3",
"4wwwwww5@@o+&6wwwwwwwwwww0;.o%::::&+X#5wwwwwwwwwwwq>###:#5wwwwww3",
"4wwwwww5@+.@7wwwwwwwwwww0=.X@&&=$=&#X.@5wwwwwwwwwwwq>#@+#7wwwwww3",
"3wwwwww5@+@8wwwwwwwwwww0=..@@@@@####@oX+7wwwwwwwwwwwq>##X5wwwwww3",
"3wwwwww5+*8wwwwwwwwwww9-.o%:::::::=:=&+X@5wwwwwwwwwwqq:##5wwwwww3",
"3wwwwww5&8wwwwwwwwwww0=.o%::::::::::::&@.@6wwwwwqwwwwwq<O5wwwwww3",
"3wwwwww5<wwwwwwwwwww0=.o%::::::::::::::=+.@6wwwwwwwwwww9:5wwwwww3",
"2wwwwww5<wwwwwwwwww9=Xo%::::::::::::::::*+.@6wwwwwwwwwww15wwwwww3",
"4wwwwww5<wwwwwwwww9=Xo%:::::::::::::::::;-+X@6wwwwwwwwww<6wwwwww3",
"3wwwwww5<wwwwwwww0=.o&::::::::::::::::::::=+.@60wwwwwwww16wwwwww3",
"2wwwwww5<wwwwwww9&.o#&:&===:=:===:===&==-==*O.+4wwwwwwww17wwwwww3",
"4wwwwww5<wwwwww9&..o@@@@@@@@@@@@++#@+@+@+@@@+o +5wwwwwww14wwwwww3",
"4wwwwqw5-21112<-.X+@####@@@@@@@%##########@#@@oX+<22<22<-4wwwwww3",
"3wwwwww054444544444544544544444454444544444444644464364640wwwwww3",
"3wwwwwwwwwwwwwwwwwwwwwwwwwwwwwwwwwwwwwwwwwwwwwwwwwwwwwwwwwwwwwww3",
"3wwwwwwqwwwwwwwwwwwwwwwwwwwwwwwwwwwwwwwwwwwwwwwwwwwwwwwwwwwwwwww3",
"3wwwwwwwwwwwwwwwwwwwwwwwwwwwwwwwwwwwwwwwwwwwwwwwwwwwwwwwwwwwwwww3",
"3wwwwwwwwwwwwwwwwwwwwwwwwwwwwwwwwwwwwwwwwwwwwwwwwwwwwwwwwwwwwwww3",
"3wwwwwwwwwwwwwwwwwwwwwwwwwwwwwwwwwwwwwwwwwwwwwwwwwwwwwwwwwwwwwww3",
"3wwwwwwwwwwwwwwwwwwwwwwwwwwwwwwwwwwwwwwwwwwwwwwwwwwwwwwwwwwwwwww3",
",333333333333333333333333333333333333333333333333333333333333333,"
};
